<svg xmlns="http://www.w3.org/2000/svg" width="15.225" height="15.225" viewBox="0 0 15.225 15.225">
  <path id="Icon_awesome-phone-square-alt" data-name="Icon awesome-phone-square-alt" d="M13.593,2.25H1.631A1.631,1.631,0,0,0,0,3.881V15.843a1.631,1.631,0,0,0,1.631,1.631H13.593a1.631,1.631,0,0,0,1.631-1.631V3.881A1.631,1.631,0,0,0,13.593,2.25ZM13.036,12.7l-.51,2.209a.51.51,0,0,1-.5.4A9.856,9.856,0,0,1,2.175,5.444a.534.534,0,0,1,.4-.5l2.209-.51a.62.62,0,0,1,.115-.013.553.553,0,0,1,.469.309l1.02,2.379a.608.608,0,0,1,.041.2.578.578,0,0,1-.187.395L4.948,8.762a7.881,7.881,0,0,0,3.765,3.765l1.053-1.288a.578.578,0,0,1,.395-.187.607.607,0,0,1,.2.041l2.379,1.02a.552.552,0,0,1,.309.469A.591.591,0,0,1,13.036,12.7Z" transform="translate(0 -2.25)" fill="#2e3191"/>
</svg>
