<svg xmlns="http://www.w3.org/2000/svg" width="14.199" height="14.222" viewBox="0 0 14.199 14.222">
  <path id="Icon_feather-phone-call" data-name="Icon feather-phone-call" d="M10.659,3.816A2.9,2.9,0,0,1,12.945,6.1M10.659,1.5a5.211,5.211,0,0,1,4.6,4.6m-.579,4.62v1.737a1.158,1.158,0,0,1-1.262,1.158,11.458,11.458,0,0,1-5-1.777A11.29,11.29,0,0,1,4.95,8.361a11.458,11.458,0,0,1-1.777-5.02A1.158,1.158,0,0,1,4.325,2.079H6.062a1.158,1.158,0,0,1,1.158,1A7.434,7.434,0,0,0,7.625,4.7a1.158,1.158,0,0,1-.261,1.222l-.735.735A9.263,9.263,0,0,0,10.1,10.132l.735-.735a1.158,1.158,0,0,1,1.222-.261,7.434,7.434,0,0,0,1.627.405A1.158,1.158,0,0,1,14.682,10.717Z" transform="translate(-2.168 -0.396)" fill="none" stroke="#7a8486" stroke-linecap="round" stroke-linejoin="round" stroke-width="2"/>
</svg>
