<svg xmlns="http://www.w3.org/2000/svg" width="12.675" height="14.787" viewBox="0 0 12.675 14.787">
  <path id="Icon_metro-language" data-name="Icon metro-language" d="M10.167,11.1q-.008.025-.1,0T9.8,11l-.165-.074a4.944,4.944,0,0,1-.718-.4q-.058-.041-.338-.26t-.314-.235A14.058,14.058,0,0,1,7.163,11.52a6.134,6.134,0,0,1-.866.908.654.654,0,0,1-.161.033.318.318,0,0,1-.153,0q.05-.033.677-.759.173-.2.706-.949a11.537,11.537,0,0,0,.648-.974q.14-.248.421-.813a6.432,6.432,0,0,0,.3-.64,6.781,6.781,0,0,0-.908.272L7.6,8.661l-.285.078a1.414,1.414,0,0,0-.14.041.14.14,0,0,0-.017.087.183.183,0,0,1-.008.078q-.041.083-.256.124a.665.665,0,0,1-.388,0A.348.348,0,0,1,6.272,8.9a.42.42,0,0,1-.041-.19,1.594,1.594,0,0,1,.2-.041,2.464,2.464,0,0,0,.243-.05q.479-.132.866-.264.825-.289.842-.289A1.831,1.831,0,0,0,8.739,7.9,3.733,3.733,0,0,1,9.1,7.724q.074-.025.177-.066t.12-.045a.111.111,0,0,1,.05,0,.939.939,0,0,1-.008.272,1.757,1.757,0,0,1-.1.223q-.1.206-.219.441t-.14.276a12.376,12.376,0,0,1-.635,1.081l.528.231q.1.05.615.264l.557.231q.033.008.087.21a.625.625,0,0,1,.037.252ZM8.475,7.089a.335.335,0,0,1-.033.231.748.748,0,0,1-.413.314,1.325,1.325,0,0,1-.5.1.683.683,0,0,1-.4-.215.621.621,0,0,1-.149-.338l.008-.025a.353.353,0,0,0,.161.041.718.718,0,0,0,.219,0q.083-.017.479-.132A2.356,2.356,0,0,1,8.3,6.948a.163.163,0,0,1,.173.14Zm5.76,1.064.52,1.873L13.608,9.68Zm-9.143,6.6,5.727-1.914V4.324L5.092,6.247v8.508Zm10.241-2.616.842.256L14.68,6.973l-.825-.256L12.073,11.14l.842.256.371-.908,1.741.536ZM11.182,4.2,15.91,5.719V2.583Zm2.566,10.917,1.3.107-.446,1.32L14.276,16A6.117,6.117,0,0,1,12,16.892a3.955,3.955,0,0,1-.751.1h-.693a5.577,5.577,0,0,1-1.646-.322,5.48,5.48,0,0,1-1.514-.7.172.172,0,0,1-.066-.132.16.16,0,0,1,.041-.111.138.138,0,0,1,.107-.045.465.465,0,0,1,.149.062l.252.136.169.091a7.311,7.311,0,0,0,1.316.507,4.808,4.808,0,0,0,1.3.2,7.042,7.042,0,0,0,1.378-.12,6.8,6.8,0,0,0,1.3-.417q.124-.058.252-.128l.281-.157q.153-.087.235-.136Zm3.7-8.9v8.9l-6.387-2.03q-.116.05-3.094,1.052t-3.037,1a.149.149,0,0,1-.149-.107.063.063,0,0,0-.008-.025v-8.9A.368.368,0,0,1,4.8,6.032a.371.371,0,0,1,.165-.091q.875-.289,1.23-.413V2.36l4.6,1.634q.017,0,1.324-.454t2.608-.9q1.3-.441,1.333-.441.165,0,.165.173V5.826Z" transform="translate(-4.77 -2.203)" fill="#5c5f6d"/>
</svg>
