<svg xmlns="http://www.w3.org/2000/svg" width="13.424" height="13.424" viewBox="0 0 13.424 13.424">
  <path id="Icon_awesome-fax" data-name="Icon awesome-fax" d="M1.678,3.356H.839A.839.839,0,0,0,0,4.195v8.39a.839.839,0,0,0,.839.839h.839a.839.839,0,0,0,.839-.839V4.195A.839.839,0,0,0,1.678,3.356Zm10.907.839V2.025a.839.839,0,0,0-.246-.593L11.152.246A.839.839,0,0,0,10.559,0H4.195a.839.839,0,0,0-.839.839V12.585a.839.839,0,0,0,.839.839h8.39a.839.839,0,0,0,.839-.839V5.034A.839.839,0,0,0,12.585,4.195ZM7.551,11.326a.419.419,0,0,1-.419.419H6.292a.419.419,0,0,1-.419-.419v-.839a.419.419,0,0,1,.419-.419h.839a.419.419,0,0,1,.419.419Zm0-3.356a.419.419,0,0,1-.419.419H6.292a.419.419,0,0,1-.419-.419V7.131a.419.419,0,0,1,.419-.419h.839a.419.419,0,0,1,.419.419Zm3.356,3.356a.419.419,0,0,1-.419.419H9.648a.419.419,0,0,1-.419-.419v-.839a.419.419,0,0,1,.419-.419h.839a.419.419,0,0,1,.419.419Zm0-3.356a.419.419,0,0,1-.419.419H9.648a.419.419,0,0,1-.419-.419V7.131a.419.419,0,0,1,.419-.419h.839a.419.419,0,0,1,.419.419Zm.419-2.936H4.614V1.258h5.453V2.1a.419.419,0,0,0,.419.419h.839Z" fill="#2e3191"/>
</svg>
