<svg xmlns="http://www.w3.org/2000/svg" width="19.237" height="14.959" viewBox="0 0 19.237 14.959">
  <path id="Icon_awesome-home" data-name="Icon awesome-home" d="M9.362,6.134,3.205,11.205v5.473a.534.534,0,0,0,.534.534l3.742-.01a.534.534,0,0,0,.532-.534v-3.2a.534.534,0,0,1,.534-.534h2.137a.534.534,0,0,1,.534.534v3.194a.534.534,0,0,0,.534.536l3.741.01a.534.534,0,0,0,.534-.534V11.2L9.873,6.134A.407.407,0,0,0,9.362,6.134Zm9.726,3.447L16.3,7.28V2.654a.4.4,0,0,0-.4-.4h-1.87a.4.4,0,0,0-.4.4V5.079l-2.99-2.46a1.6,1.6,0,0,0-2.037,0L.144,9.581a.4.4,0,0,0-.053.564l.852,1.035a.4.4,0,0,0,.565.054l7.855-6.47a.407.407,0,0,1,.511,0l7.856,6.47a.4.4,0,0,0,.564-.053l.852-1.035a.4.4,0,0,0-.057-.565Z" transform="translate(0.001 -2.254)" fill="#2e3191"/>
</svg>
