<svg xmlns="http://www.w3.org/2000/svg" width="16.013" height="10.809" viewBox="0 0 16.013 10.809">
  <path id="Icon_zocial-email" data-name="Icon zocial-email" d="M.072,13.919V5.025q0-.015.046-.293L5.353,9.21.134,14.228a1.309,1.309,0,0,1-.062-.309ZM.767,4.114a.665.665,0,0,1,.263-.046h14.1a.874.874,0,0,1,.278.046l-5.25,4.493-.695.556L8.086,10.291,6.712,9.164l-.695-.556ZM.782,14.831,6.048,9.781l2.038,1.652,2.038-1.652,5.265,5.049a.741.741,0,0,1-.263.046H1.029a.7.7,0,0,1-.247-.046ZM10.819,9.21l5.219-4.478a.922.922,0,0,1,.046.293v8.894a1.184,1.184,0,0,1-.046.309Z" transform="translate(-0.072 -4.068)" fill="#2e3191"/>
</svg>
