<svg xmlns="http://www.w3.org/2000/svg" width="14.435" height="14.432" viewBox="0 0 14.435 14.432">
  <path id="Icon_awesome-instagram" data-name="Icon awesome-instagram" d="M7.214,5.753a3.7,3.7,0,1,0,3.7,3.7A3.694,3.694,0,0,0,7.214,5.753Zm0,6.106A2.406,2.406,0,1,1,9.619,9.454,2.41,2.41,0,0,1,7.214,11.859ZM11.928,5.6a.863.863,0,1,1-.863-.863A.861.861,0,0,1,11.928,5.6Zm2.451.876a4.271,4.271,0,0,0-1.166-3.024,4.3,4.3,0,0,0-3.024-1.166c-1.192-.068-4.763-.068-5.954,0A4.293,4.293,0,0,0,1.211,3.451,4.285,4.285,0,0,0,.045,6.475c-.068,1.192-.068,4.763,0,5.954a4.271,4.271,0,0,0,1.166,3.024,4.3,4.3,0,0,0,3.024,1.166c1.192.068,4.763.068,5.954,0a4.271,4.271,0,0,0,3.024-1.166,4.3,4.3,0,0,0,1.166-3.024c.068-1.192.068-4.76,0-5.951Zm-1.539,7.23a2.435,2.435,0,0,1-1.372,1.372,15.9,15.9,0,0,1-4.254.29,16.029,16.029,0,0,1-4.254-.29,2.435,2.435,0,0,1-1.372-1.372A15.9,15.9,0,0,1,1.3,9.454,16.029,16.029,0,0,1,1.588,5.2,2.435,2.435,0,0,1,2.96,3.828a15.9,15.9,0,0,1,4.254-.29,16.029,16.029,0,0,1,4.254.29A2.435,2.435,0,0,1,12.84,5.2a15.9,15.9,0,0,1,.29,4.254A15.9,15.9,0,0,1,12.84,13.708Z" transform="translate(0.005 -2.238)" fill="#5c5f6d"/>
</svg>
